<svg id="Layer_1" data-name="Layer 1" xmlns="http://www.w3.org/2000/svg" viewBox="0 0 19.35 20"><defs><style>.cls-1{opacity:0.7;}.cls-2{fill:#6c7174;}</style></defs><title>Refresh</title><g class="cls-1"><path class="cls-2" d="M19.35,14V6.62a1.69,1.69,0,0,0-1.69-1.68h-2V1.08A1.09,1.09,0,0,0,14.56,0H4.8A1.08,1.08,0,0,0,3.72,1.08V4.94h-2A1.68,1.68,0,0,0,0,6.62V14a1.69,1.69,0,0,0,1.68,1.68h2v3.24A1.08,1.08,0,0,0,4.8,20h9.76a1.09,1.09,0,0,0,1.08-1.08V15.67h2A1.68,1.68,0,0,0,19.35,14ZM4.53,1.08A.27.27,0,0,1,4.8.81h9.76a.27.27,0,0,1,.27.27V4.94H4.53ZM14.84,18.92a.28.28,0,0,1-.28.27H4.8a.27.27,0,0,1-.27-.27V10.71h10.3v8.21ZM18.54,14a.87.87,0,0,1-.88.87h-2V10.31a.4.4,0,0,0-.4-.4H4.12a.4.4,0,0,0-.4.4v4.56h-2A.87.87,0,0,1,.82,14V6.62a.87.87,0,0,1,.87-.87h16a.87.87,0,0,1,.88.87Zm0,0"/><path class="cls-2" d="M2.89,7.41a.4.4,0,0,0-.29.69.4.4,0,0,0,.29.12.39.39,0,0,0,.28-.12.42.42,0,0,0,.12-.28.45.45,0,0,0-.12-.29.42.42,0,0,0-.28-.12Zm0,0"/></g></svg>