<svg id="Layer_1" data-name="Layer 1" xmlns="http://www.w3.org/2000/svg" viewBox="0 0 22.21 20"><defs><style>.cls-1{opacity:0.7;}.cls-2{fill:#6c7174;}</style></defs><title>Refresh</title><g class="cls-1"><path class="cls-2" d="M10,20A10,10,0,1,1,20,10a.57.57,0,0,1-.57.57.56.56,0,0,1-.57-.57,8.86,8.86,0,1,0-1.22,4.49.57.57,0,0,1,.78-.21.58.58,0,0,1,.2.79A10,10,0,0,1,10,20Zm0,0"/><path class="cls-2" d="M19.43,10.57a.51.51,0,0,1-.29-.08L15.56,8.38a.57.57,0,0,1,.58-1l3.12,1.85,2-2.88a.58.58,0,0,1,.8-.14.56.56,0,0,1,.14.79L19.9,10.33a.57.57,0,0,1-.47.24Zm0,0"/></g></svg>