<svg id="Layer_1" data-name="Layer 1" xmlns="http://www.w3.org/2000/svg" viewBox="0 0 20 20"><defs><style>.cls-1{opacity:0.7;}.cls-2{fill:#6c7174;}</style></defs><title>Refresh</title><g class="cls-1"><path class="cls-2" d="M10,4.81A5.19,5.19,0,1,0,15.19,10,5.2,5.2,0,0,0,10,4.81Zm0,9.63A4.44,4.44,0,1,1,14.44,10,4.44,4.44,0,0,1,10,14.44Zm0,0"/><path class="cls-2" d="M19,7.78h-.75a8.51,8.51,0,0,0-.83-2l.53-.53a1.06,1.06,0,0,0,.3-.73,1,1,0,0,0-.3-.73L16.23,2.09a1.06,1.06,0,0,0-1.46,0l-.53.52a8.51,8.51,0,0,0-2-.83V1a1,1,0,0,0-1-1H8.81a1,1,0,0,0-1,1v.75a8.51,8.51,0,0,0-2,.83l-.53-.52a1.06,1.06,0,0,0-1.46,0L2.09,3.77a1,1,0,0,0-.3.73,1,1,0,0,0,.3.73l.52.53a8.51,8.51,0,0,0-.83,2H1a1,1,0,0,0-1,1v2.38a1,1,0,0,0,1,1h.75a8.51,8.51,0,0,0,.83,2l-.52.53a1,1,0,0,0-.3.73,1,1,0,0,0,.3.73l1.68,1.69a1.08,1.08,0,0,0,1.46,0l.53-.53a8.51,8.51,0,0,0,2,.83V19a1,1,0,0,0,1,1h2.38a1,1,0,0,0,1-1v-.75a8.51,8.51,0,0,0,2-.83l.53.53a1.08,1.08,0,0,0,1.46,0l1.69-1.69a1,1,0,0,0,.3-.73,1.06,1.06,0,0,0-.3-.73l-.53-.53a8.51,8.51,0,0,0,.83-2H19a1,1,0,0,0,1-1V8.81a1,1,0,0,0-1-1Zm.29,3.41a.29.29,0,0,1-.29.29H17.64l-.07.29a7.71,7.71,0,0,1-1,2.34l-.16.25.94.94a.28.28,0,0,1,0,.4l-1.68,1.69a.3.3,0,0,1-.41,0l-.94-.94-.25.16a7.71,7.71,0,0,1-2.34,1l-.29.07V19a.29.29,0,0,1-.29.29H8.81A.29.29,0,0,1,8.52,19V17.64l-.29-.07a7.55,7.55,0,0,1-2.33-1l-.25-.16-.94.94a.3.3,0,0,1-.41,0L2.61,15.7a.28.28,0,0,1,0-.4l.94-.94-.16-.25a7.71,7.71,0,0,1-1-2.34l-.07-.29H1a.29.29,0,0,1-.29-.29V8.81A.29.29,0,0,1,1,8.52H2.36l.07-.29a7.55,7.55,0,0,1,1-2.33l.16-.25-.94-.94a.3.3,0,0,1,0-.41L4.3,2.61a.3.3,0,0,1,.41,0l.94.94.25-.16a7.55,7.55,0,0,1,2.33-1l.29-.07V1A.29.29,0,0,1,8.81.74h2.38a.29.29,0,0,1,.29.29V2.36l.29.07a7.71,7.71,0,0,1,2.34,1l.25.16.94-.94a.3.3,0,0,1,.41,0L17.39,4.3a.3.3,0,0,1,0,.41l-.94.94.16.25a7.55,7.55,0,0,1,1,2.33l.07.29H19a.29.29,0,0,1,.29.29Zm0,0"/><path class="cls-2" d="M10,6.3A3.7,3.7,0,1,0,13.71,10,3.7,3.7,0,0,0,10,6.3ZM10,13a3,3,0,1,1,3-3,3,3,0,0,1-3,3Zm0,0"/></g></svg>