<svg xmlns="http://www.w3.org/2000/svg" xmlns:xlink="http://www.w3.org/1999/xlink" viewBox="0 0 39.2 41.03"><defs><style>.cls-1,.cls-2{fill:none;}.cls-2{clip-rule:evenodd;}.cls-3{clip-path:url(#clip-path);}.cls-4{clip-path:url(#clip-path-2);}.cls-5{isolation:isolate;}.cls-6{clip-path:url(#clip-path-3);}.cls-7{clip-path:url(#clip-path-4);}.cls-8{clip-path:url(#clip-path-5);}.cls-9{fill:#c7222a;}</style><clipPath id="clip-path" transform="translate(-396 -298)"><rect class="cls-1" x="401" y="303" width="29.2" height="31.03"/></clipPath><clipPath id="clip-path-2" transform="translate(-396 -298)"><rect class="cls-1" width="1600" height="1079"/></clipPath><clipPath id="clip-path-3" transform="translate(-396 -298)"><rect class="cls-1" x="400" y="302" width="31" height="33"/></clipPath><clipPath id="clip-path-4" transform="translate(-396 -298)"><path class="cls-2" d="M429.81,311.25,416,303.11a.84.84,0,0,0-.84,0l-13.81,8.14a.75.75,0,0,0-.36.87.78.78,0,0,0,.77.57h2.25V314a.76.76,0,0,0,.75.76h.38v1.1a.76.76,0,0,0,.76.76h.36v10.42h-.36a.76.76,0,0,0-.76.76v1.11h-1a.76.76,0,0,0-.75.75V331H403a.76.76,0,0,0-.76.76v1.49a.76.76,0,0,0,.76.75h14.63a.46.46,0,0,0,.46-.45.47.47,0,0,0-.46-.46H403.15v-1.18H428v1.18h-7.16a.47.47,0,0,0-.46.46.46.46,0,0,0,.46.45h7.31a.76.76,0,0,0,.76-.75v-1.49a.76.76,0,0,0-.76-.76h-.39v-1.34a.76.76,0,0,0-.76-.75h-1v-1.11a.76.76,0,0,0-.76-.76h-.36V316.65h.36a.76.76,0,0,0,.76-.76v-1.1h.37a.76.76,0,0,0,.76-.76v-1.34h2.24a.8.8,0,0,0,.78-.57A.77.77,0,0,0,429.81,311.25ZM406.09,328h.36a.76.76,0,0,0,.76-.75V316.5a.76.76,0,0,0-.76-.76h-.36v-.95h3.46v.95h-.36a.76.76,0,0,0-.76.76v1.84a.45.45,0,0,0,.45.45.46.46,0,0,0,.46-.45v-1.69h.36a.76.76,0,0,0,.76-.76v-1.1H413v1.1a.76.76,0,0,0,.76.76h.36v10.42h-.36a.76.76,0,0,0-.76.76v1.11h-2.5v-1.11a.76.76,0,0,0-.76-.76h-.36v-5.49a.46.46,0,0,0-.46-.45.45.45,0,0,0-.45.45v5.65a.76.76,0,0,0,.76.75h.36v1h-3.46Zm15.41-11.33h.36v10.42h-.36a.76.76,0,0,0-.76.76v1.11h-2.5v-1.11a.76.76,0,0,0-.76-.76h-.36V316.65h.36a.76.76,0,0,0,.76-.76v-1.1h2.5v1.1A.76.76,0,0,0,421.5,316.65Zm-4.17-.91H417a.76.76,0,0,0-.76.76v10.73a.76.76,0,0,0,.76.75h.36v1h-3.46v-1h.36a.76.76,0,0,0,.76-.75V316.5a.76.76,0,0,0-.76-.76h-.36v-.95h3.46Zm-13,15.29h22.58v-1.18H404.31Zm20.8-15.29h-.37a.76.76,0,0,0-.75.76v10.73a.76.76,0,0,0,.75.75h.37v1h-3.46v-1H422a.76.76,0,0,0,.76-.75V316.5a.76.76,0,0,0-.76-.76h-.36v-.95h3.46ZM405,313.88h21.28v-1.19H405Zm24-2.1H402.27l13.35-7.85Z"/></clipPath><clipPath id="clip-path-5" transform="translate(-396 -298)"><rect class="cls-1" x="401" y="303" width="30" height="32"/></clipPath></defs><title>Bank</title><g id="Layer_2" data-name="Layer 2"><g id="Layer_1-2" data-name="Layer 1"><g class="cls-3"><g class="cls-4"><g class="cls-5"><g class="cls-6"><g class="cls-7"><g class="cls-8"><rect class="cls-9" width="39.2" height="41.03"/></g></g></g></g></g></g></g></g></svg>