<svg xmlns="http://www.w3.org/2000/svg" xmlns:xlink="http://www.w3.org/1999/xlink" viewBox="0 0 44.09 35"><defs><style>.cls-1,.cls-2{fill:none;}.cls-2{clip-rule:evenodd;}.cls-3{clip-path:url(#clip-path);}.cls-4{clip-path:url(#clip-path-2);}.cls-5{isolation:isolate;}.cls-6{clip-path:url(#clip-path-3);}.cls-7{clip-path:url(#clip-path-4);}.cls-8{clip-path:url(#clip-path-5);}.cls-9{fill:#c7222a;}.cls-10{clip-path:url(#clip-path-6);}.cls-11{clip-path:url(#clip-path-8);}.cls-12{clip-path:url(#clip-path-10);}.cls-13{clip-path:url(#clip-path-12);}.cls-14{clip-path:url(#clip-path-14);}.cls-15{clip-path:url(#clip-path-16);}.cls-16{clip-path:url(#clip-path-18);}.cls-17{clip-path:url(#clip-path-20);}.cls-18{clip-path:url(#clip-path-22);}</style><clipPath id="clip-path" transform="translate(-735 -302)"><rect class="cls-1" x="740" y="307" width="34.09" height="25"/></clipPath><clipPath id="clip-path-2" transform="translate(-735 -302)"><rect class="cls-1" width="1600" height="1079"/></clipPath><clipPath id="clip-path-3" transform="translate(-735 -302)"><rect class="cls-1" x="739" y="306" width="36" height="26"/></clipPath><clipPath id="clip-path-4" transform="translate(-735 -302)"><path class="cls-2" d="M771.69,307H742.4a2.39,2.39,0,0,0-2.4,2.4v20.21a2.39,2.39,0,0,0,2.4,2.39h29.29a2.39,2.39,0,0,0,2.4-2.39V309.4A2.39,2.39,0,0,0,771.69,307ZM773,329.61a1.26,1.26,0,0,1-1.26,1.26H742.4a1.26,1.26,0,0,1-1.26-1.26V309.4a1.25,1.25,0,0,1,1.26-1.26h29.29A1.25,1.25,0,0,1,773,309.4Z"/></clipPath><clipPath id="clip-path-5" transform="translate(-735 -302)"><rect class="cls-1" x="740" y="307" width="35" height="25"/></clipPath><clipPath id="clip-path-6" transform="translate(-735 -302)"><path class="cls-2" d="M749.09,323.48H744a.57.57,0,1,0,0,1.13h5.11a.57.57,0,1,0,0-1.13"/></clipPath><clipPath id="clip-path-8" transform="translate(-735 -302)"><path class="cls-2" d="M756.48,323.48h-5.12a.57.57,0,1,0,0,1.13h5.12a.57.57,0,1,0,0-1.13"/></clipPath><clipPath id="clip-path-10" transform="translate(-735 -302)"><path class="cls-2" d="M744.54,326.32H744a.56.56,0,0,0-.57.57.57.57,0,0,0,.57.57h.56a.57.57,0,0,0,.57-.57.56.56,0,0,0-.57-.57"/></clipPath><clipPath id="clip-path-12" transform="translate(-735 -302)"><path class="cls-2" d="M748,326.32h-1.13a.56.56,0,0,0-.57.57.57.57,0,0,0,.57.57H748a.57.57,0,0,0,.57-.57.56.56,0,0,0-.57-.57"/></clipPath><clipPath id="clip-path-14" transform="translate(-735 -302)"><path class="cls-2" d="M750.8,326.32h-.57a.56.56,0,0,0-.57.57.57.57,0,0,0,.57.57h.57a.57.57,0,0,0,.56-.57.56.56,0,0,0-.56-.57"/></clipPath><clipPath id="clip-path-16" transform="translate(-735 -302)"><path class="cls-2" d="M754.2,326.32h-1.13a.56.56,0,0,0-.57.57.57.57,0,0,0,.57.57h1.13a.57.57,0,0,0,.57-.57.56.56,0,0,0-.57-.57"/></clipPath><clipPath id="clip-path-18" transform="translate(-735 -302)"><path class="cls-2" d="M756.08,326.48a.58.58,0,0,0,.4,1,.57.57,0,0,0,.4-1,.59.59,0,0,0-.8,0"/></clipPath><clipPath id="clip-path-20" transform="translate(-735 -302)"><path class="cls-2" d="M767.27,321.2a3.92,3.92,0,0,0-2,.54,4,4,0,1,0,0,6.88,3.92,3.92,0,0,0,2,.54,4,4,0,0,0,0-8m-1.13,4a2.87,2.87,0,0,1-.85,2,2.84,2.84,0,0,1-.86-2,2.8,2.8,0,0,1,.86-2,2.83,2.83,0,0,1,.85,2m-5.68,0a2.84,2.84,0,0,1,2.84-2.84,2.64,2.64,0,0,1,1,.2,4,4,0,0,0,0,5.29,2.83,2.83,0,0,1-3.85-2.65m6.81,2.84a2.83,2.83,0,0,1-1-.19,4,4,0,0,0,0-5.29,2.64,2.64,0,0,1,1-.2,2.84,2.84,0,1,1,0,5.68"/></clipPath><clipPath id="clip-path-22" transform="translate(-735 -302)"><path class="cls-2" d="M744.69,319.5h7.67a1.29,1.29,0,0,0,1.28-1.28v-5.39a1.29,1.29,0,0,0-1.28-1.29h-7.67a1.28,1.28,0,0,0-1.28,1.29v5.39A1.28,1.28,0,0,0,744.69,319.5Zm-.15-3.41h2.28V315h-2.28Zm0,2.13v-1h2.28v1s0,.1,0,.14h-2.14A.15.15,0,0,1,744.54,318.22Zm8-2.13h-2.27v-1a.15.15,0,0,1,.14-.15h2.13Zm-.14,2.27h-2.15a.59.59,0,0,0,0-.14v-1h2.27v1A.14.14,0,0,1,752.36,318.36Zm0-5.68a.15.15,0,0,1,.14.15v.84a.15.15,0,0,1-.14.15h-2a1.28,1.28,0,0,0-1.28,1.28v3.12a.14.14,0,0,1-.14.14h-.85a.15.15,0,0,1-.15-.14v-5.39a.15.15,0,0,1,.15-.15Zm-7.67,0h2.14c0,.05,0,.1,0,.15v1h-2.28v-1A.15.15,0,0,1,744.69,312.68Z"/></clipPath></defs><title>Credit Card</title><g id="Layer_2" data-name="Layer 2"><g id="Layer_1-2" data-name="Layer 1"><g class="cls-3"><g class="cls-4"><g class="cls-5"><g class="cls-6"><g class="cls-7"><g class="cls-8"><rect class="cls-9" width="44.09" height="35"/></g></g></g></g></g></g><g class="cls-10"><g class="cls-4"><rect class="cls-9" x="3.41" y="16.48" width="16.25" height="11.14"/></g></g><g class="cls-11"><g class="cls-4"><rect class="cls-9" x="10.8" y="16.48" width="16.25" height="11.14"/></g></g><g class="cls-12"><g class="cls-4"><rect class="cls-9" x="3.41" y="19.32" width="11.7" height="11.14"/></g></g><g class="cls-13"><g class="cls-4"><rect class="cls-9" x="6.25" y="19.32" width="12.27" height="11.14"/></g></g><g class="cls-14"><g class="cls-4"><rect class="cls-9" x="9.66" y="19.32" width="11.7" height="11.14"/></g></g><g class="cls-15"><g class="cls-4"><rect class="cls-9" x="12.5" y="19.32" width="12.27" height="11.14"/></g></g><g class="cls-16"><g class="cls-4"><rect class="cls-9" x="15.91" y="19.33" width="11.14" height="11.13"/></g></g><g class="cls-17"><g class="cls-4"><rect class="cls-9" x="19.32" y="14.2" width="21.93" height="17.95"/></g></g><g class="cls-18"><g class="cls-4"><rect class="cls-9" x="3.41" y="4.54" width="20.23" height="17.96"/></g></g></g></g></svg>