<svg id="Layer_1" data-name="Layer 1" xmlns="http://www.w3.org/2000/svg" xmlns:xlink="http://www.w3.org/1999/xlink" viewBox="0 0 15.6 19.24"><defs><style>.cls-1{fill:none;}.cls-2{opacity:0.5;}.cls-3{clip-path:url(#clip-path);}.cls-4{fill:gray;}</style><clipPath id="clip-path"><rect class="cls-1" width="15.6" height="19.24"/></clipPath></defs><title>Refresh</title><g class="cls-2"><g class="cls-3"><path class="cls-4" d="M13.36,2.3h-3a2.6,2.6,0,0,0-5.17,0h-3A2.21,2.21,0,0,0,0,4.5v.11A2.22,2.22,0,0,0,1.39,6.66V17a2.2,2.2,0,0,0,2.2,2.2H12a2.21,2.21,0,0,0,2.2-2.2V6.66a2.22,2.22,0,0,0,1.39-2V4.5a2.21,2.21,0,0,0-2.2-2.2ZM7.78,1A1.57,1.57,0,0,1,9.31,2.3H6.25A1.57,1.57,0,0,1,7.78,1Zm5.35,16A1.15,1.15,0,0,1,12,18.19H3.59A1.15,1.15,0,0,1,2.43,17V6.81h10.7ZM14.51,4.61a1.15,1.15,0,0,1-1.15,1.16H2.2A1.16,1.16,0,0,1,1,4.61V4.5A1.15,1.15,0,0,1,2.2,3.35H13.36A1.14,1.14,0,0,1,14.51,4.5Zm0,0"/></g><path class="cls-4" d="M5,16.86a.52.52,0,0,0,.53-.52V10.47a.53.53,0,0,0-1,0v5.87a.52.52,0,0,0,.52.52Zm0,0"/><path class="cls-4" d="M7.78,16.86a.52.52,0,0,0,.52-.52V10.47a.52.52,0,1,0-1,0v5.87a.52.52,0,0,0,.52.52Zm0,0"/><path class="cls-4" d="M10.57,16.86a.52.52,0,0,0,.52-.52V10.47a.52.52,0,0,0-1,0v5.87a.52.52,0,0,0,.52.52Zm0,0"/></g></svg>