<svg id="Layer_1" data-name="Layer 1" xmlns="http://www.w3.org/2000/svg" xmlns:xlink="http://www.w3.org/1999/xlink" viewBox="0 0 19.39 19.24"><defs><style>.cls-1{fill:none;}.cls-2{opacity:0.5;}.cls-3{clip-path:url(#clip-path);}.cls-4{fill:gray;}</style><clipPath id="clip-path"><rect class="cls-1" x="0.03" width="19.29" height="19.24"/></clipPath></defs><title>Refresh</title><g class="cls-2"><g class="cls-3"><path class="cls-4" d="M17.83,12.07a.48.48,0,0,0-.48.48v4.26a1.43,1.43,0,0,1-1.44,1.44H2.43A1.44,1.44,0,0,1,1,16.81V4.3A1.46,1.46,0,0,1,2.43,2.85H6.7a.48.48,0,0,0,.48-.48.49.49,0,0,0-.48-.48H2.43A2.42,2.42,0,0,0,0,4.3V16.81a2.42,2.42,0,0,0,2.4,2.41H15.91a2.41,2.41,0,0,0,2.4-2.41V12.55a.47.47,0,0,0-.48-.48Zm0,0"/><path class="cls-4" d="M18.12.66a2.15,2.15,0,0,0-3.06,0L6.49,9.23a.55.55,0,0,0-.12.21L5.24,13.51a.49.49,0,0,0,.13.47.48.48,0,0,0,.47.12L9.9,13a.48.48,0,0,0,.22-.12l8.56-8.57a2.15,2.15,0,0,0,0-3.06ZM7.54,9.54l7-7,2.27,2.26-7,7Zm-.45.91,1.81,1.8L6.4,13ZM18,3.6l-.51.51L15.23,1.85l.51-.51a1.2,1.2,0,0,1,1.7,0L18,1.9a1.22,1.22,0,0,1,0,1.7Zm0,0"/></g></g></svg>