<svg id="Layer_1" data-name="Layer 1" xmlns="http://www.w3.org/2000/svg" viewBox="0 0 22 22"><defs><style>.cls-1{fill:#c7222a;}</style></defs><title>Refresh</title><path class="cls-1" d="M19.68,0H2.32A2.32,2.32,0,0,0,0,2.32V19.68A2.32,2.32,0,0,0,2.32,22H19.68A2.32,2.32,0,0,0,22,19.68V2.32A2.32,2.32,0,0,0,19.68,0ZM20.9,19.68a1.22,1.22,0,0,1-1.22,1.22H2.32A1.22,1.22,0,0,1,1.1,19.68V2.32A1.22,1.22,0,0,1,2.32,1.1H19.68A1.22,1.22,0,0,1,20.9,2.32Zm0,0"/><path class="cls-1" d="M15.15,10.45h-3.6V6.85a.56.56,0,1,0-1.11,0v3.6H6.84a.56.56,0,0,0-.56.55.55.55,0,0,0,.56.55h3.6v3.61a.56.56,0,0,0,1.11,0V11.55h3.6a.55.55,0,1,0,0-1.1Zm0,0"/></svg>