<svg id="Layer_1" data-name="Layer 1" xmlns="http://www.w3.org/2000/svg" viewBox="0 0 22.03 22"><defs><style>.cls-1{opacity:0.7;}.cls-2{fill:#b3b3b3;}</style></defs><title>Refresh</title><g class="cls-1"><path class="cls-2" d="M19.71,0H2.34A2.31,2.31,0,0,0,0,2.32V19.68A2.32,2.32,0,0,0,2.34,22H19.71A2.32,2.32,0,0,0,22,19.68V2.32A2.33,2.33,0,0,0,19.71,0Zm1.22,19.68a1.22,1.22,0,0,1-1.22,1.22H2.34a1.22,1.22,0,0,1-1.21-1.22V2.32A1.22,1.22,0,0,1,2.34,1.1H19.71a1.22,1.22,0,0,1,1.22,1.22Zm0,0"/><path class="cls-2" d="M15.18,10.45H11.57V6.85A.55.55,0,0,0,11,6.29a.56.56,0,0,0-.55.56v3.6H6.86a.55.55,0,0,0-.55.55.55.55,0,0,0,.55.55h3.61v3.61a.55.55,0,0,0,.55.55.55.55,0,0,0,.55-.55V11.55h3.61a.55.55,0,0,0,0-1.1Zm0,0"/></g></svg>